<?xml version="1.0" standalone="no"?>
<!DOCTYPE svg PUBLIC "-//W3C//DTD SVG 20010904//EN"
 "http://www.w3.org/TR/2001/REC-SVG-20010904/DTD/svg10.dtd">
<svg version="1.0" xmlns="http://www.w3.org/2000/svg"
 width="260.000000pt" height="260.000000pt" viewBox="0 0 260.000000 260.000000"
 preserveAspectRatio="xMidYMid meet">
<metadata>
Created by potrace 1.14, written by Peter Selinger 2001-2017
</metadata>
<g transform="translate(0.000000,260.000000) scale(0.100000,-0.100000)"
fill="#000000" stroke="none">
<path d="M965 2488 c-19 -11 -143 -113 -213 -176 -18 -16 -54 -47 -79 -68 -26
-22 -51 -43 -57 -49 -6 -5 -43 -37 -81 -70 -39 -33 -72 -62 -75 -65 -3 -3 -52
-46 -110 -95 -58 -50 -110 -94 -116 -100 -6 -5 -37 -32 -70 -60 -124 -105
-153 -137 -160 -170 -9 -50 12 -98 59 -138 23 -19 53 -45 67 -57 14 -12 47
-40 74 -63 72 -62 128 -110 146 -127 9 -8 43 -37 75 -65 33 -27 65 -54 71 -60
6 -5 37 -32 69 -60 33 -27 75 -64 94 -81 20 -17 51 -44 70 -60 19 -16 39 -34
45 -39 6 -6 40 -35 76 -65 35 -30 73 -63 83 -72 55 -48 138 -39 182 20 19 25
20 43 20 269 0 209 2 243 15 244 42 2 207 -6 310 -16 89 -9 246 -44 315 -70
214 -80 319 -220 328 -434 4 -100 -7 -182 -45 -333 l-32 -128 20 -27 c25 -33
62 -48 97 -39 37 9 137 95 210 180 104 123 181 270 224 428 18 65 24 276 11
363 -53 352 -288 584 -693 685 -190 48 -330 66 -590 76 -88 4 -162 8 -164 10
-2 2 -4 97 -4 211 1 151 -3 217 -13 240 -23 58 -107 90 -159 61z"/>
</g>
</svg>
